<svg width="37" height="44" viewBox="0 0 37 44" fill="none" xmlns="http://www.w3.org/2000/svg">
<path d="M34.2463 2.96582L2.55127 34.6609" stroke="#8E8E8E" stroke-width="4" stroke-linecap="round" stroke-linejoin="round"/>
<path d="M4.69184 24.0028C3.85197 22.0631 3.35205 19.9635 3.35205 17.8037C3.35205 7.98528 11.7907 0.24648 21.3893 2.34615C24.3088 2.98605 26.9084 4.54581 28.9081 6.70547" stroke="#8E8E8E" stroke-width="4" stroke-linecap="round" stroke-linejoin="round"/>
<path opacity="0.4" d="M32.3076 12.6035C34.7472 20.3623 30.8078 28.1611 25.2287 31.7405V34.0602C25.2287 34.6401 25.4287 35.9799 23.429 35.9799H13.0305C10.9708 35.9799 11.2308 35.12 11.2308 34.0602V31.7405C10.271 31.1406 9.3711 30.4007 8.51123 29.5409" stroke="#8E8E8E" stroke-width="4" stroke-linecap="round" stroke-linejoin="round"/>
<path opacity="0.4" d="M11.1904 42.0002C15.7697 40.7004 20.609 40.7004 25.1882 42.0002" stroke="#8E8E8E" stroke-width="4" stroke-linecap="round" stroke-linejoin="round"/>
</svg>
