<svg width="32" height="44" viewBox="0 0 32 44" fill="none" xmlns="http://www.w3.org/2000/svg">
<path opacity="0.4" d="M15.7603 19.9101C15.5584 19.8899 15.3161 19.8899 15.094 19.9101C10.2884 19.7486 6.47217 15.8112 6.47217 10.9652C6.47217 6.01817 10.4701 2 15.4372 2C20.3842 2 24.4024 6.01817 24.4024 10.9652C24.3822 15.8112 20.566 19.7486 15.7603 19.9101Z" stroke="#8E8E8E" stroke-width="4" stroke-linecap="round" stroke-linejoin="round"/>
<path d="M5.66481 27.3612C0.778395 30.6322 0.778395 35.9629 5.66481 39.2138C11.2176 42.9291 20.3241 42.9291 25.8768 39.2138C30.7632 35.9427 30.7632 30.6121 25.8768 27.3612C20.3443 23.6661 11.2378 23.6661 5.66481 27.3612Z" stroke="#8E8E8E" stroke-width="4" stroke-linecap="round" stroke-linejoin="round"/>
</svg>
