<svg width="45" height="44" viewBox="0 0 45 44" fill="none" xmlns="http://www.w3.org/2000/svg">
<path d="M16.2393 42H28.2393C38.2393 42 42.2393 38 42.2393 28V16C42.2393 6 38.2393 2 28.2393 2H16.2393C6.23926 2 2.23926 6 2.23926 16V28C2.23926 38 6.23926 42 16.2393 42Z" stroke="#8E8E8E" stroke-width="4" stroke-linecap="round" stroke-linejoin="round"/>
<g opacity="0.4">
<path d="M29.3799 34.9992V27.1992" stroke="#8E8E8E" stroke-width="4" stroke-miterlimit="10" stroke-linecap="round" stroke-linejoin="round"/>
<path d="M29.3799 12.9V9" stroke="#8E8E8E" stroke-width="4" stroke-miterlimit="10" stroke-linecap="round" stroke-linejoin="round"/>
<path d="M29.3787 23.3004C32.2507 23.3004 34.5787 20.9722 34.5787 18.1004C34.5787 15.2285 32.2507 12.9004 29.3787 12.9004C26.5069 12.9004 24.1787 15.2285 24.1787 18.1004C24.1787 20.9722 26.5069 23.3004 29.3787 23.3004Z" stroke="#8E8E8E" stroke-width="4" stroke-miterlimit="10" stroke-linecap="round" stroke-linejoin="round"/>
<path d="M15.0986 34.9996V31.0996" stroke="#8E8E8E" stroke-width="4" stroke-miterlimit="10" stroke-linecap="round" stroke-linejoin="round"/>
<path d="M15.0986 16.8V9" stroke="#8E8E8E" stroke-width="4" stroke-miterlimit="10" stroke-linecap="round" stroke-linejoin="round"/>
<path d="M15.0994 31.0992C17.9713 31.0992 20.2995 28.771 20.2995 25.8992C20.2995 23.0274 17.9713 20.6992 15.0994 20.6992C12.2275 20.6992 9.89941 23.0274 9.89941 25.8992C9.89941 28.771 12.2275 31.0992 15.0994 31.0992Z" stroke="#8E8E8E" stroke-width="4" stroke-miterlimit="10" stroke-linecap="round" stroke-linejoin="round"/>
</g>
</svg>
