<svg width="45" height="44" viewBox="0 0 45 44" fill="none" xmlns="http://www.w3.org/2000/svg">
<path opacity="0.4" d="M20.0157 2.49707H16.0654C6.18959 2.49707 2.23926 6.4474 2.23926 16.3232V28.1742C2.23926 38.05 6.18959 42.0003 16.0654 42.0003H27.9164C37.7922 42.0003 41.7425 38.05 41.7425 28.1742V24.2239" stroke="#8E8E8E" stroke-width="4" stroke-linecap="round" stroke-linejoin="round"/>
<path d="M29.9703 4.51089L14.4059 20.0753C13.8134 20.6678 13.2208 21.8332 13.1023 22.6825L12.253 28.6277C11.937 30.7806 13.4579 32.2818 15.6108 31.9855L21.5561 31.1362C22.3856 31.0177 23.551 30.4251 24.1633 29.8326L39.7276 14.2682C42.4138 11.582 43.6779 8.46121 39.7276 4.51089C35.7772 0.560558 32.6565 1.82466 29.9703 4.51089Z" stroke="#8E8E8E" stroke-width="4" stroke-miterlimit="10" stroke-linecap="round" stroke-linejoin="round"/>
<path opacity="0.4" d="M27.7388 6.74316C29.0621 11.4638 32.7557 15.1574 37.4961 16.5005" stroke="#8E8E8E" stroke-width="4" stroke-miterlimit="10" stroke-linecap="round" stroke-linejoin="round"/>
</svg>
