<svg width="45" height="44" viewBox="0 0 45 44" fill="none" xmlns="http://www.w3.org/2000/svg">
<path d="M16.2383 42H28.2383C38.2383 42 42.2383 38 42.2383 28V16C42.2383 6 38.2383 2 28.2383 2H16.2383C6.23828 2 2.23828 6 2.23828 16V28C2.23828 38 6.23828 42 16.2383 42Z" stroke="#8E8E8E" stroke-width="4" stroke-linecap="round" stroke-linejoin="round"/>
<path opacity="0.4" d="M2.23828 24.0005H9.75828C11.2783 24.0005 12.6583 24.8605 13.3383 26.2205L15.1183 29.8005C16.2383 32.0005 18.2383 32.0005 18.7183 32.0005H25.7783C27.2983 32.0005 28.6783 31.1405 29.3583 29.7805L31.1383 26.2005C31.8183 24.8405 33.1983 23.9805 34.7183 23.9805H42.1983" stroke="#8E8E8E" stroke-width="4" stroke-linecap="round" stroke-linejoin="round"/>
<path opacity="0.4" d="M18.918 12H25.578" stroke="#8E8E8E" stroke-width="4" stroke-linecap="round" stroke-linejoin="round"/>
<path opacity="0.4" d="M17.2383 18H27.2383" stroke="#8E8E8E" stroke-width="4" stroke-linecap="round" stroke-linejoin="round"/>
</svg>
