<svg width="36" height="44" viewBox="0 0 36 44" fill="none" xmlns="http://www.w3.org/2000/svg">
<path d="M18.1047 3.92871C11.5242 3.92871 6.17638 9.27658 6.17638 15.857V21.6026C6.17638 22.8153 5.65949 24.6642 5.04319 25.698L2.75693 29.4952C1.34541 31.8411 2.31955 34.4454 4.90403 35.3202C13.4725 38.183 22.717 38.183 31.2855 35.3202C33.6911 34.5249 34.7447 31.682 33.4326 29.4952L31.1463 25.698C30.5499 24.6642 30.033 22.8153 30.033 21.6026V15.857C30.033 9.29646 24.6653 3.92871 18.1047 3.92871Z" stroke="#8E8E8E" stroke-width="4" stroke-miterlimit="10" stroke-linecap="round"/>
<path d="M21.783 4.50495C21.1668 4.32602 20.5306 4.18686 19.8745 4.10734C17.966 3.86877 16.137 4.00794 14.4272 4.50495C15.0038 3.03379 16.4352 2 18.1051 2C19.7751 2 21.2065 3.03379 21.783 4.50495Z" stroke="#8E8E8E" stroke-width="4" stroke-miterlimit="10" stroke-linecap="round" stroke-linejoin="round"/>
<path opacity="0.4" d="M24.0684 36.0361C24.0684 39.3164 21.3845 42.0003 18.1042 42.0003C16.474 42.0003 14.9631 41.3244 13.8896 40.2508C12.8161 39.1773 12.1401 37.6663 12.1401 36.0361" stroke="#8E8E8E" stroke-width="4" stroke-miterlimit="10"/>
</svg>
