<svg width="86" height="40" viewBox="0 0 86 40" fill="none" xmlns="http://www.w3.org/2000/svg">
<path fill-rule="evenodd" clip-rule="evenodd" d="M46.9004 1.31882e-05C45.9567 1.31882e-05 45.1914 0.768433 45.1914 1.69685V5.66422C45.1913 5.83172 45.2242 5.99759 45.2884 6.1523C45.3526 6.30701 45.4467 6.44751 45.5654 6.56573C45.684 6.68394 45.8249 6.77754 45.9798 6.84114C46.1348 6.90474 46.3008 6.93709 46.4683 6.93633H83.9882C84.1556 6.93674 84.3215 6.90416 84.4763 6.84043C84.6311 6.77671 84.7718 6.68309 84.8904 6.56495C85.0089 6.4468 85.1031 6.30644 85.1674 6.15188C85.2317 5.99733 85.2649 5.83162 85.2651 5.66422V1.27212C85.2652 1.10462 85.2323 0.938753 85.1681 0.784042C85.1039 0.62933 85.0098 0.488829 84.8911 0.370613C84.7725 0.252397 84.6316 0.1588 84.4767 0.0951999C84.3217 0.0315993 84.1557 -0.000749783 83.9882 1.31882e-05H46.9004ZM46.4683 10.2126C46.3009 10.2122 46.135 10.2448 45.9802 10.3085C45.8254 10.3723 45.6847 10.4659 45.5661 10.584C45.4476 10.7022 45.3534 10.8425 45.2891 10.9971C45.2248 11.1516 45.1916 11.3173 45.1914 11.4847V15.8768C45.1913 16.0443 45.2242 16.2102 45.2884 16.3649C45.3526 16.5196 45.4467 16.6601 45.5654 16.7784C45.684 16.8966 45.8249 16.9902 45.9798 17.0538C46.1348 17.1174 46.3008 17.1497 46.4683 17.149H83.9882C84.1556 17.1494 84.3215 17.1168 84.4763 17.0531C84.6311 16.9893 84.7718 16.8957 84.8904 16.7776C85.0089 16.6594 85.1031 16.5191 85.1674 16.3645C85.2317 16.21 85.2649 16.0442 85.2651 15.8768V11.4847C85.2652 11.3173 85.2323 11.1514 85.1681 10.9967C85.1039 10.842 85.0098 10.7015 84.8911 10.5832C84.7725 10.465 84.6316 10.3714 84.4767 10.3078C84.3217 10.2442 84.1557 10.2119 83.9882 10.2126H46.4683ZM46.4683 21.2768C46.3009 21.2764 46.135 21.309 45.9802 21.3727C45.8254 21.4365 45.6847 21.5301 45.5661 21.6482C45.4476 21.7664 45.3534 21.9067 45.2891 22.0613C45.2248 22.2158 45.1916 22.3816 45.1914 22.549V26.9405C45.1913 27.108 45.2242 27.2739 45.2884 27.4286C45.3526 27.5833 45.4467 27.7238 45.5654 27.842C45.684 27.9602 45.8249 28.0538 45.9798 28.1174C46.1348 28.181 46.3008 28.2134 46.4683 28.2126H83.9882C84.1556 28.2131 84.3215 28.1805 84.4763 28.1167C84.6311 28.053 84.7718 27.9594 84.8904 27.8413C85.0089 27.7231 85.1031 27.5827 85.1674 27.4282C85.2317 27.2736 85.2649 27.1079 85.2651 26.9405V22.549C85.2652 22.3815 85.2323 22.2156 85.1681 22.0609C85.1039 21.9062 85.0098 21.7657 84.8911 21.6474C84.7725 21.5292 84.6316 21.4356 84.4767 21.372C84.3217 21.3084 84.1557 21.2761 83.9882 21.2768H46.4683ZM46.4683 32.3405C46.3009 32.3401 46.135 32.3727 45.9802 32.4364C45.8254 32.5001 45.6847 32.5938 45.5661 32.7119C45.4476 32.8301 45.3534 32.9704 45.2891 33.125C45.2248 33.2795 45.1916 33.4452 45.1914 33.6126V38.0042C45.1912 38.1717 45.2241 38.3377 45.2883 38.4924C45.3524 38.6472 45.4465 38.7878 45.5652 38.9061C45.6838 39.0243 45.8247 39.118 45.9797 39.1816C46.1347 39.2452 46.3007 39.2776 46.4683 39.2768H83.9882C84.1557 39.2773 84.3216 39.2447 84.4764 39.1809C84.6312 39.1171 84.772 39.0235 84.8905 38.9053C85.0091 38.7871 85.1033 38.6466 85.1675 38.492C85.2318 38.3374 85.2649 38.1716 85.2651 38.0042V33.6126C85.2652 33.4451 85.2323 33.2793 85.1681 33.1246C85.1039 32.9698 85.0098 32.8293 84.8911 32.7111C84.7725 32.5929 84.6316 32.4993 84.4767 32.4357C84.3217 32.3721 84.1557 32.3398 83.9882 32.3405H46.4683ZM34.9598 38.7258C34.9598 38.8932 34.9927 39.0589 35.0567 39.2136C35.1208 39.3683 35.2147 39.5088 35.3331 39.6271C35.4515 39.7455 35.592 39.8393 35.7467 39.9033C35.9014 39.9673 36.0672 40.0001 36.2346 40H40.6346C40.802 40.0004 40.9679 39.9677 41.1227 39.9038C41.2775 39.84 41.4181 39.7461 41.5365 39.6277C41.6549 39.5093 41.7488 39.3687 41.8126 39.2139C41.8765 39.0591 41.9092 38.8932 41.9088 38.7258V1.2737C41.9088 1.10634 41.8758 0.940636 41.8117 0.786037C41.7477 0.631438 41.6537 0.490979 41.5354 0.372693C41.417 0.254407 41.2764 0.160612 41.1218 0.0966655C40.9671 0.0327189 40.8014 -0.000125119 40.634 1.31882e-05H36.2341C36.0666 -0.000403352 35.9007 0.0322721 35.7459 0.0961596C35.5912 0.160047 35.4505 0.253887 35.3321 0.372291C35.2137 0.490696 35.1199 0.631331 35.056 0.786114C34.9921 0.940896 34.9594 1.10677 34.9598 1.27422V38.7258ZM11.9388 38.7258C11.9387 38.8932 11.9717 39.0589 12.0357 39.2136C12.0997 39.3683 12.1936 39.5088 12.312 39.6271C12.4304 39.7455 12.571 39.8393 12.7257 39.9033C12.8804 39.9673 13.0461 40.0001 13.2135 40H17.6135C17.781 40.0004 17.9469 39.9677 18.1016 39.9038C18.2564 39.84 18.3971 39.7461 18.5155 39.6277C18.6339 39.5093 18.7277 39.3687 18.7916 39.2139C18.8555 39.0591 18.8882 38.8932 18.8877 38.7258V1.2737C18.8877 1.10634 18.8548 0.940636 18.7907 0.786037C18.7266 0.631438 18.6327 0.490979 18.5143 0.372693C18.3959 0.254407 18.2554 0.160612 18.1007 0.0966655C17.9461 0.0327189 17.7804 -0.000125119 17.613 1.31882e-05H13.213C13.0456 -0.000403352 12.8797 0.0322721 12.7249 0.0961596C12.5701 0.160047 12.4295 0.253887 12.3111 0.372291C12.1927 0.490696 12.0988 0.631331 12.0349 0.786114C11.9711 0.940896 11.9384 1.10677 11.9388 1.27422V38.7258ZM6.9509 38.7258C6.95097 38.8932 6.91804 39.0589 6.854 39.2136C6.78996 39.3683 6.69605 39.5088 6.57766 39.6271C6.45927 39.7455 6.31871 39.8393 6.16403 39.9033C6.00934 39.9673 5.84356 40.0001 5.67617 40H1.27617C1.10872 40.0004 0.942838 39.9677 0.788056 39.9038C0.633273 39.84 0.49264 39.7461 0.374235 39.6277C0.255831 39.5093 0.161989 39.3687 0.0981015 39.2139C0.0342139 39.0591 0.00154052 38.8932 0.00195706 38.7258V1.2737C0.001957 1.10634 0.0349365 0.940636 0.099011 0.786037C0.163085 0.631438 0.256998 0.490979 0.375382 0.372693C0.493766 0.254407 0.634301 0.160612 0.788953 0.0966655C0.943605 0.0327189 1.10934 -0.000125119 1.27669 1.31882e-05H5.67669C5.84414 -0.000403352 6.01002 0.0322721 6.1648 0.0961596C6.31959 0.160047 6.46022 0.253887 6.57862 0.372291C6.69703 0.490696 6.79087 0.631331 6.85476 0.786114C6.91865 0.940896 6.95132 1.10677 6.9509 1.27422V38.7258ZM23.023 38.7258C23.0229 38.8932 23.0559 39.0589 23.1199 39.2136C23.184 39.3683 23.2779 39.5088 23.3962 39.6271C23.5146 39.7455 23.6552 39.8393 23.8099 39.9033C23.9646 39.9673 24.1303 40.0001 24.2977 40H28.6977C28.8652 40.0004 29.0311 39.9677 29.1858 39.9038C29.3406 39.84 29.4813 39.7461 29.5997 39.6277C29.7181 39.5093 29.8119 39.3687 29.8758 39.2139C29.9397 39.0591 29.9724 38.8932 29.9719 38.7258V1.2737C29.9719 1.10634 29.939 0.940636 29.8749 0.786037C29.8108 0.631438 29.7169 0.490979 29.5985 0.372693C29.4801 0.254407 29.3396 0.160612 29.185 0.0966655C29.0303 0.0327189 28.8646 -0.000125119 28.6972 1.31882e-05H24.2972C24.1298 -0.000403352 23.9639 0.0322721 23.8091 0.0961596C23.6543 0.160047 23.5137 0.253887 23.3953 0.372291C23.2769 0.490696 23.183 0.631331 23.1191 0.786114C23.0553 0.940896 23.0226 1.10677 23.023 1.27422V38.7258Z" fill="#8E8E8E"/>
</svg>
