<svg width="45" height="44" viewBox="0 0 45 44" fill="none" xmlns="http://www.w3.org/2000/svg">
<path opacity="0.4" d="M23.2554 9.64448C22.8021 9.29168 22.1725 9.29168 21.7192 9.64448C19.3266 11.4715 12.2622 17.4313 12.3 24.3739C12.3 29.9935 16.871 34.5799 22.4999 34.5799C28.1287 34.5799 32.6998 30.0061 32.6998 24.3865C32.7124 17.5447 25.6354 11.4841 23.2554 9.64448Z" stroke="#8E8E8E" stroke-width="4" stroke-miterlimit="10"/>
<path d="M16.52 42H28.52C38.52 42 42.52 38 42.52 28V16C42.52 6 38.52 2 28.52 2H16.52C6.52002 2 2.52002 6 2.52002 16V28C2.52002 38 6.52002 42 16.52 42Z" stroke="#8E8E8E" stroke-width="4" stroke-linecap="round" stroke-linejoin="round"/>
</svg>
