<svg width="45" height="44" viewBox="0 0 45 44" fill="none" xmlns="http://www.w3.org/2000/svg">
<path d="M30.0839 25.7863V30.8343C30.0839 32.9166 28.3802 34.6203 26.2979 34.6203H18.7259C16.6436 34.6203 14.9399 32.9166 14.9399 30.8343V24.499L19.8491 24.5243C20.7704 24.5243 21.679 24.7388 22.5119 25.1553C23.3449 25.5717 24.2535 25.7863 25.1874 25.7863H30.0839Z" stroke="#8E8E8E" stroke-width="4" stroke-linecap="round" stroke-linejoin="round"/>
<path opacity="0.4" d="M30.0839 20.5235V25.786H25.1874C24.2535 25.786 23.3449 25.5715 22.5119 25.155C21.679 24.7386 20.7704 24.524 19.8491 24.524L14.9399 24.4988V20.5235C14.9399 19.943 15.2681 19.1479 15.6846 18.7314L18.36 16.056C18.5871 15.8288 18.7259 15.5007 18.7259 15.1726V13.166H26.2979V15.1726C26.2979 15.5007 26.4368 15.8288 26.6639 16.056L29.3394 18.7314C29.7558 19.1479 30.0839 19.943 30.0839 20.5235Z" stroke="#8E8E8E" stroke-width="4" stroke-linecap="round" stroke-linejoin="round"/>
<path d="M30.084 27.0481V25.7861" stroke="#8E8E8E" stroke-width="4" stroke-linecap="round" stroke-linejoin="round"/>
<path d="M14.9399 25.761V24.499" stroke="#8E8E8E" stroke-width="4" stroke-linecap="round" stroke-linejoin="round"/>
<path d="M25.6669 13.1659H19.3569C18.3094 13.1659 17.4639 12.3077 17.4639 11.2729C17.4639 10.238 18.3094 9.37988 19.3569 9.37988H25.6669C26.7143 9.37988 27.5599 10.238 27.5599 11.2729C27.5599 12.3077 26.7143 13.1659 25.6669 13.1659Z" stroke="#8E8E8E" stroke-width="3" stroke-linecap="round" stroke-linejoin="round"/>
<path d="M16.52 42H28.52C38.52 42 42.52 38 42.52 28V16C42.52 6 38.52 2 28.52 2H16.52C6.52002 2 2.52002 6 2.52002 16V28C2.52002 38 6.52002 42 16.52 42Z" stroke="#8E8E8E" stroke-width="4" stroke-linecap="round" stroke-linejoin="round"/>
</svg>
