<svg width="45" height="44" viewBox="0 0 45 44" fill="none" xmlns="http://www.w3.org/2000/svg">
<path opacity="0.4" d="M33.073 16.1041V29.3123C33.073 34.5955 31.7522 35.9164 26.4689 35.9164H18.544C13.2608 35.9164 11.9399 34.5955 11.9399 29.3123V16.1041C11.9399 10.8208 13.2608 9.5 18.544 9.5H26.4689C31.7522 9.5 33.073 10.8208 33.073 16.1041Z" stroke="#8E8E8E" stroke-width="2" stroke-linecap="round" stroke-linejoin="round"/>
<path opacity="0.4" d="M25.148 14.123H19.8647" stroke="#8E8E8E" stroke-width="2" stroke-linecap="round" stroke-linejoin="round"/>
<path opacity="0.4" d="M22.5067 32.0857C23.6374 32.0857 24.554 31.1691 24.554 30.0385C24.554 28.9079 23.6374 27.9912 22.5067 27.9912C21.3761 27.9912 20.4595 28.9079 20.4595 30.0385C20.4595 31.1691 21.3761 32.0857 22.5067 32.0857Z" stroke="#8E8E8E" stroke-width="2" stroke-linecap="round" stroke-linejoin="round"/>
<path d="M16.52 42H28.52C38.52 42 42.52 38 42.52 28V16C42.52 6 38.52 2 28.52 2H16.52C6.52002 2 2.52002 6 2.52002 16V28C2.52002 38 6.52002 42 16.52 42Z" stroke="#8E8E8E" stroke-width="4" stroke-linecap="round" stroke-linejoin="round"/>
</svg>
