<svg width="45" height="44" viewBox="0 0 45 44" fill="none" xmlns="http://www.w3.org/2000/svg">
<path opacity="0.4" d="M15.6602 29.0749L28.9001 16.9349C29.4601 16.4349 29.4401 15.6349 28.8601 15.1549L24.7403 11.7149C23.6603 10.8149 22.8003 11.2349 22.8003 12.6349V31.2949C22.8003 32.6949 23.6803 33.0949 24.7403 32.2149L28.8601 28.7749C29.4401 28.2949 29.4601 27.4949 28.9001 26.9949L15.6602 14.8549" stroke="#8E8E8E" stroke-width="4" stroke-miterlimit="10" stroke-linecap="round" stroke-linejoin="round"/>
<path d="M16.52 42H28.52C38.52 42 42.52 38 42.52 28V16C42.52 6 38.52 2 28.52 2H16.52C6.52002 2 2.52002 6 2.52002 16V28C2.52002 38 6.52002 42 16.52 42Z" stroke="#8E8E8E" stroke-width="4" stroke-linecap="round" stroke-linejoin="round"/>
</svg>
