<svg width="45" height="44" viewBox="0 0 45 44" fill="none" xmlns="http://www.w3.org/2000/svg">
<path d="M16.7725 2H28.7725C38.7725 2 42.7725 6 42.7725 16V28C42.7725 38 38.7725 42 28.7725 42H16.7725C6.77246 42 2.77246 38 2.77246 28V16C2.77246 6 6.77246 2 16.7725 2Z" stroke="#8E8E8E" stroke-width="4" stroke-linecap="round" stroke-linejoin="round"/>
<path opacity="0.4" d="M15.4131 28.54L28.4931 15.46" stroke="#8E8E8E" stroke-width="4" stroke-linecap="round" stroke-linejoin="round"/>
<path opacity="0.4" d="M16.2325 18.7402C17.5911 18.7402 18.6924 17.639 18.6924 16.2803C18.6924 14.9217 17.5911 13.8203 16.2325 13.8203C14.8739 13.8203 13.7725 14.9217 13.7725 16.2803C13.7725 17.639 14.8739 18.7402 16.2325 18.7402Z" stroke="#8E8E8E" stroke-width="3" stroke-linecap="round" stroke-linejoin="round"/>
<path opacity="0.4" d="M29.3104 30.1798C30.6692 30.1798 31.7706 29.0784 31.7706 27.7198C31.7706 26.3612 30.6692 25.2598 29.3104 25.2598C27.9518 25.2598 26.8506 26.3612 26.8506 27.7198C26.8506 29.0784 27.9518 30.1798 29.3104 30.1798Z" stroke="#8E8E8E" stroke-width="3" stroke-linecap="round" stroke-linejoin="round"/>
</svg>
