<svg width="41" height="44" viewBox="0 0 41 44" fill="none" xmlns="http://www.w3.org/2000/svg">
<path d="M16.2803 42H24.2803C34.2803 42 38.2803 38 38.2803 28V16C38.2803 6 34.2803 2 24.2803 2H16.2803C6.28027 2 2.28027 6 2.28027 16V28C2.28027 38 6.28027 42 16.2803 42Z" stroke="#8E8E8E" stroke-width="4" stroke-linecap="round" stroke-linejoin="round"/>
<path opacity="0.4" d="M29.2803 13.1602V15.1602C29.2803 16.8002 27.9403 18.1602 26.2803 18.1602H14.2803C12.6403 18.1602 11.2803 16.8202 11.2803 15.1602V13.1602C11.2803 11.5202 12.6203 10.1602 14.2803 10.1602H26.2803C27.9403 10.1602 29.2803 11.5002 29.2803 13.1602Z" stroke="#8E8E8E" stroke-width="4" stroke-linecap="round" stroke-linejoin="round"/>
<path opacity="0.4" d="M12.5522 26H12.5753" stroke="#8E8E8E" stroke-width="4" stroke-linecap="round" stroke-linejoin="round"/>
<path opacity="0.4" d="M20.2715 26H20.2945" stroke="#8E8E8E" stroke-width="4" stroke-linecap="round" stroke-linejoin="round"/>
<path opacity="0.4" d="M27.9902 26H28.0132" stroke="#8E8E8E" stroke-width="4" stroke-linecap="round" stroke-linejoin="round"/>
<path opacity="0.4" d="M12.5522 33H12.5753" stroke="#8E8E8E" stroke-width="4" stroke-linecap="round" stroke-linejoin="round"/>
<path opacity="0.4" d="M20.2715 33H20.2945" stroke="#8E8E8E" stroke-width="4" stroke-linecap="round" stroke-linejoin="round"/>
<path opacity="0.4" d="M27.9902 33H28.0132" stroke="#8E8E8E" stroke-width="4" stroke-linecap="round" stroke-linejoin="round"/>
</svg>
