<svg width="45" height="44" viewBox="0 0 45 44" fill="none" xmlns="http://www.w3.org/2000/svg">
<path d="M16.1738 42H28.1738C38.1738 42 42.1738 38 42.1738 28V16C42.1738 6 38.1738 2 28.1738 2H16.1738C6.17383 2 2.17383 6 2.17383 16V28C2.17383 38 6.17383 42 16.1738 42Z" stroke="#8E8E8E" stroke-width="4" stroke-linecap="round" stroke-linejoin="round"/>
<g opacity="0.4">
<path d="M30.7322 25.2192C28.4722 27.4792 25.2322 28.1792 22.3722 27.2792L17.1923 32.4392C16.8323 32.8192 16.0923 33.0592 15.5523 32.9792L13.1523 32.6592C12.3523 32.5592 11.6323 31.7992 11.5123 31.0192L11.1923 28.6192C11.1123 28.0992 11.3723 27.3592 11.7323 26.9792L16.8923 21.8192C16.0123 18.9592 16.6923 15.7193 18.9522 13.4593C22.1922 10.2193 27.4722 10.2193 30.7322 13.4593C33.9722 16.6793 33.9722 21.9592 30.7322 25.2192Z" stroke="#8E8E8E" stroke-width="2" stroke-miterlimit="10" stroke-linecap="round" stroke-linejoin="round"/>
<path d="M19.073 30.5598L17.373 28.8398" stroke="#8E8E8E" stroke-width="2" stroke-miterlimit="10" stroke-linecap="round" stroke-linejoin="round"/>
<path d="M24.9639 19.4004H24.9819" stroke="#8E8E8E" stroke-width="2" stroke-linecap="round" stroke-linejoin="round"/>
</g>
</svg>
