<svg width="49" height="44" viewBox="0 0 49 44" fill="none" xmlns="http://www.w3.org/2000/svg">
<path d="M43.9707 11.4442L37.2139 38.5717C36.7327 40.5967 34.9282 42.0002 32.843 42.0002H6.49731C3.46977 42.0002 1.30442 39.0326 2.20667 36.1254L10.6477 9.0182C11.2291 7.1335 12.9735 5.83008 14.9384 5.83008H39.5998C41.5046 5.83008 43.0885 6.99299 43.7502 8.59699C44.1311 9.45913 44.2113 10.4417 43.9707 11.4442Z" stroke="#8E8E8E" stroke-width="4" stroke-miterlimit="10"/>
<path opacity="0.4" d="M32.0825 41.9998H41.6664C44.2528 41.9998 46.2779 39.8144 46.0974 37.2279L44.1125 9.91992" stroke="#8E8E8E" stroke-width="4" stroke-miterlimit="10" stroke-linecap="round" stroke-linejoin="round"/>
<path d="M19.4106 10.682L21.4959 2.02051" stroke="#8E8E8E" stroke-width="4" stroke-miterlimit="10" stroke-linecap="round" stroke-linejoin="round"/>
<path d="M32.8462 10.7016L34.7309 2" stroke="#8E8E8E" stroke-width="4" stroke-miterlimit="10" stroke-linecap="round" stroke-linejoin="round"/>
<path opacity="0.4" d="M15.4399 21.9502H31.4798" stroke="#8E8E8E" stroke-width="4" stroke-miterlimit="10" stroke-linecap="round" stroke-linejoin="round"/>
<path opacity="0.4" d="M13.4346 29.9697H29.4745" stroke="#8E8E8E" stroke-width="4" stroke-miterlimit="10" stroke-linecap="round" stroke-linejoin="round"/>
</svg>
