<svg width="44" height="44" viewBox="0 0 44 44" fill="none" xmlns="http://www.w3.org/2000/svg">
<path opacity="0.4" d="M28.2869 12.8154H16.0056C15.1595 12.8154 14.409 12.8384 13.7403 12.9188C10.1515 13.2517 9.18261 14.6754 9.18261 18.5561V25.4449C9.18261 29.3255 10.1515 30.7492 13.7403 31.0822C14.409 31.1625 15.1595 31.1855 16.0056 31.1855H28.2869C29.1329 31.1855 29.8835 31.1625 30.5521 31.0822C34.141 30.7492 35.1099 29.3255 35.1099 25.4449V18.5561C35.1099 14.6754 34.141 13.2517 30.5521 12.9188C29.8835 12.8384 29.1329 12.8154 28.2869 12.8154Z" stroke="#8E8E8E" stroke-width="3" stroke-linecap="round" stroke-linejoin="round"/>
<path opacity="0.4" d="M20.0757 19.749H15.2996" stroke="#8E8E8E" stroke-width="3" stroke-linecap="round" stroke-linejoin="round"/>
<path opacity="0.4" d="M29.0103 26.0186H28.983H15.3643" stroke="#8E8E8E" stroke-width="3" stroke-linecap="round" stroke-linejoin="round"/>
<path opacity="0.4" d="M24.7231 19.6777H24.7109" stroke="#8E8E8E" stroke-width="3" stroke-linecap="round" stroke-linejoin="round"/>
<path opacity="0.4" d="M28.8169 19.6357H28.8047" stroke="#8E8E8E" stroke-width="3" stroke-linecap="round" stroke-linejoin="round"/>
<path d="M16.2457 41.7414H28.0846C37.9504 41.7414 41.8967 37.7951 41.8967 27.9293V16.0904C41.8967 6.22463 37.9504 2.27832 28.0846 2.27832H16.2457C6.3799 2.27832 2.43359 6.22463 2.43359 16.0904V27.9293C2.43359 37.7951 6.3799 41.7414 16.2457 41.7414Z" stroke="#8E8E8E" stroke-width="4" stroke-linecap="round" stroke-linejoin="round"/>
</svg>
