<svg width="45" height="44" viewBox="0 0 45 44" fill="none" xmlns="http://www.w3.org/2000/svg">
<path d="M26.1154 22.2523C29.1564 22.2523 31.6214 19.7871 31.6214 16.7462C31.6214 13.7054 29.1564 11.2402 26.1154 11.2402C23.0745 11.2402 20.6094 13.7054 20.6094 16.7462C20.6094 19.7871 23.0745 22.2523 26.1154 22.2523Z" stroke="#8E8E8E" stroke-width="3" stroke-miterlimit="10"/>
<path opacity="0.4" d="M16.2071 29.9582C18.0328 29.9582 19.5129 28.4781 19.5129 26.6524C19.5129 24.8266 18.0328 23.3467 16.2071 23.3467C14.3814 23.3467 12.9014 24.8266 12.9014 26.6524C12.9014 28.4781 14.3814 29.9582 16.2071 29.9582Z" stroke="#8E8E8E" stroke-width="3" stroke-miterlimit="10"/>
<path opacity="0.4" d="M27.2203 32.7062C28.7378 32.7062 29.9679 31.476 29.9679 29.9586C29.9679 28.441 28.7378 27.2109 27.2203 27.2109C25.7029 27.2109 24.4727 28.441 24.4727 29.9586C24.4727 31.476 25.7029 32.7062 27.2203 32.7062Z" stroke="#8E8E8E" stroke-width="3" stroke-miterlimit="10"/>
<path d="M16.2803 42H28.2803C38.2803 42 42.2803 38 42.2803 28V16C42.2803 6 38.2803 2 28.2803 2H16.2803C6.28027 2 2.28027 6 2.28027 16V28C2.28027 38 6.28027 42 16.2803 42Z" stroke="#8E8E8E" stroke-width="4" stroke-linecap="round" stroke-linejoin="round"/>
</svg>
